<?xml version="1.0" encoding="UTF-8"?>
<svg id="Layer_1" xmlns="http://www.w3.org/2000/svg" version="1.1" viewBox="0 0 560 480">
  <!-- Generator: Adobe Illustrator 29.4.0, SVG Export Plug-In . SVG Version: 2.1.0 Build 152)  -->
  <defs>
    <style>
      .st0 {
        fill: #fe9717;
      }

      .st1 {
        fill: #0dbc6a;
      }

      .st2 {
        fill: #fd4651;
      }

      .st3 {
        fill: #0c92eb;
      }

      .st4 {
        fill: #fcba11;
      }

      .st5 {
        fill: #fb233f;
      }
    </style>
  </defs>
  <g>
    <path class="st0" d="M280,335c0,34.15.38,68.36.02,102.51-.02,1.69.64,4.45-1.02,5.49l-2.26-.49c-30.99-61.8-89.36-109.18-154.14-136.75-35.69-15.19-66.87-21.34-104.56-28.03-2.2-.39-4.17-1.57-6.05-2.72-.17-35.98-.07-72.02,0-108,12.71,1.07,25.44,3.63,37.83,6.67,76.3,18.77,153,68.77,203.69,128.31,9.13,10.72,16.86,22.87,26.48,33.02Z"/>
    <path class="st3" d="M279,443c2,7.07.6,14.68,1,22-54.02-38.74-118.59-64.57-183.79-77.71-30.35-6.12-63.98-2.87-79.07-35.93-8.6-18.85-5.04-54.71-5.14-76.36,95.44,10.38,192.56,56.29,248.22,136.28,5.18,7.44,16.48,23.62,18.78,31.72Z"/>
    <g>
      <path class="st2" d="M279,115l1.05,4.44-.05,215.56c-1.55-.16-2.96-.69-4.2-1.62C214.73,249.18,120.83,184.41,16.55,169.46l-4.55-2.46c0-.33,0-.67,0-1l.86-5.56c-.66-34.06-.68-68.18-.06-102.36.89-9.08,3.96-17.45,9.2-25.08,23.35-28.55,63.49-15.39,93.77-6.27,58.78,17.7,115.42,50.3,163.23,88.27Z"/>
      <path class="st5" d="M12,166c.07-34.59-2.99-76.92.02-110.48.81-9.03,4.43-15.73,9.98-22.52,2.19.64-.23,2.82-.8,3.71-3.95,6.24-6.51,11.22-7.19,18.81-2.91,32.47,2.06,69.08.02,102.02-.16,2.58-.6,6.29-2.04,8.46Z"/>
    </g>
  </g>
  <g>
    <path class="st1" d="M548,165c.12,54.82-.08,109.66-.01,164.49-4.06,50.16-41.91,49.5-80.18,56.82-66.34,12.71-133.11,38.08-186.86,79.25l-.96-.56c-2.16-3.63-2.79-8.12-1.9-13.46-.83-3.53-.53-6.38.9-8.54-1.21-28.16-1.17-59.74-.97-89.36.04-6.26,1.01-12.47,1.97-18.64.37-1.29.77-2.56,1.31-3.77s1.08-2.36,1.84-3.35c57.3-73.78,131.43-128.6,220.74-155.65,8.43-2.55,34.9-10.48,41.67-8.34.84.27,1.65.67,2.44,1.11Z"/>
    <path class="st4" d="M548,165c-24.43,2.11-49.36,10.46-72.25,19.25-36.52,14.03-72.49,33.73-103.65,57.35-35.06,26.58-64.8,59.1-92.1,93.4l-2-4.81.06-210.58c-1.07-2.23-.76-3.77.94-4.62,48.36-38.16,102-69.09,161.23-87.27,18.36-5.63,49.52-14.83,68.01-11.48,20.22,3.66,38.13,20.16,39.79,41.21,2.63,33.27-.11,73.44-.04,107.54Z"/>
  </g>
</svg>